:SAMPLES-PER-SECOND 30
:FULLY-SPECIFIED
:DEGREES
110
root  -45.7572 38.957 -3.6599 174.621 -84.1349 177.244
RightUpLeg  15.1344 -5.71563 -7.24148
RightLeg  35.7282 2.336 1.53113
RightFoot  -9.10822 -0.33248 13.9862
RightToes  8.73114e-010 0 -3.6325e-017
Spine  -4.18465 2.91447 7.66705
Spine1  15.3239 4.54814 -5.54115
HEad  -6.89646 1.32958 -3.12033
LeftShoulder1  8.94861 -12.1093 -50.029
LeftArm  -7.92896 26.3495 -28.4758
LeftForeArm  25.5341 -12.2678 -5.33748
LeftHand  -0.244104 0.0205437 5.32207
RightShoulder  7.11756 10.2499 45.2055
RightArm  8.909 -0.276847 31.6987
RightForeArm  -3.70025 19.4338 5.80914
RightHand  -1.17634 2.76997 -16.879
LeftUpLeg  -18.0435 9.62042 -2.18922
LeftLeg  10.8991 3.68177 -1.73694
LeftFoot  14.1153 -1.38424 5.75481
LeftToes  -7.64008e-011 1.13257e-010 -2.15718e-012
111
root  -46.8945 39.121 -3.55027 -171.258 -83.7701 163.345
RightUpLeg  8.34665 -3.37432 -8.42705
RightLeg  46.8253 0.845092 0.62101
RightFoot  1.54003 -1.61908 14.5625
RightToes  8.73114e-010 0 -3.6325e-017
Spine  -2.59869 2.75493 5.69451
Spine1  13.776 4.4889 -5.80321
HEad  -8.16378 1.32971 -3.05329
LeftShoulder1  8.89712 -12.1886 -49.4935
LeftArm  -8.75487 24.3921 -28.1118
LeftForeArm  24.079 -13.8114 -4.83993
LeftHand  -0.244104 0.0205437 5.32207
RightShoulder  7.15243 10.308 45.238
RightArm  0.549786 -2.00353 32.4395
RightForeArm  3.96952 10.6151 8.22765
RightHand  -1.0353 2.14652 -16.0119
LeftUpLeg  -17.3847 11.238 -4.43786
LeftLeg  12.8916 2.87475 -1.20812
LeftFoot  10.7911 -1.35878 6.59672
LeftToes  -7.64008e-011 1.13257e-010 -2.15718e-012
112
root  -47.8273 39.3259 -3.44639 -167.808 -82.3036 159.783
RightUpLeg  1.02851 -0.898435 -8.67112
RightLeg  56.5751 -0.599189 -1.43746
RightFoot  7.83725 -2.07171 12.5159
RightToes  8.73114e-010 0 -3.6325e-017
Spine  0.131333 2.78226 4.85872
Spine1  12.0364 4.59955 -6.45917
HEad  -10.0064 1.72957 -3.68033
LeftShoulder1  8.93717 -12.3344 -49.2595
LeftArm  -9.31378 22.9565 -27.6847
LeftForeArm  22.3724 -17.6351 -4.05815
LeftHand  -0.244104 0.0205437 5.32207
RightShoulder  7.23347 10.5082 45.0906
RightArm  -2.7745 -3.6395 32.9426
RightForeArm  10.2186 4.21047 8.23944
RightHand  -0.687271 0.35256 -13.95
LeftUpLeg  -15.7493 11.3633 -4.76445
LeftLeg  13.3891 4.27358 -1.26466
LeftFoot  8.59691 -1.29067 7.0301
LeftToes  -7.64008e-011 1.13257e-010 -2.15718e-012
113
root  -48.748 39.6825 -3.33694 -172.225 -81.4139 164.064
RightUpLeg  -5.08275 -0.0781436 -7.91856
RightLeg  62.5424 -1.8607 -4.41198
RightFoot  7.57828 -1.57013 9.66009
RightToes  8.73114e-010 0 -3.6325e-017
Spine  2.28315 2.45852 5.08658
Spine1  10.7106 4.29254 -6.48434
HEad  -11.8374 2.31859 -4.40072
LeftShoulder1  8.95655 -12.3735 -49.2452
LeftArm  -9.95006 21.38 -26.8073
LeftForeArm  21.8091 -22.0745 -3.7519
LeftHand  -0.244104 0.0205437 5.32207
RightShoulder  7.35596 10.6439 45.4273
RightArm  -1.45015 -5.50553 32.5088
RightForeArm  15.7399 1.93979 7.99967
RightHand  -0.513142 -0.658906 -12.6104
LeftUpLeg  -13.3004 10.5035 -3.65482
LeftLeg  12.2243 5.88713 -1.9083
LeftFoot  8.17081 -1.29999 7.25907
LeftToes  -7.64008e-011 1.13257e-010 -2.15718e-012
114
root  -49.649 40.0898 -3.21901 -178.305 -81.7262 170.381
RightUpLeg  -10.0016 -1.05125 -6.71036
RightLeg  64.2116 -2.60063 -6.44309
RightFoot  4.40841 -1.04219 7.76428
RightToes  8.73114e-010 0 -3.6325e-017
Spine  3.3846 1.58776 5.65451
Spine1  9.65927 3.32315 -5.82239
HEad  -12.9852 2.95892 -4.67521
LeftShoulder1  8.85786 -12.2629 -49.0431
LeftArm  -10.8812 19.5222 -25.6947
LeftForeArm  22.5819 -25.9509 -4.338
LeftHand  -0.244104 0.0205437 5.32207
RightShoulder  7.40705 10.6041 45.8872
RightArm  0.793568 -8.17296 31.4682
RightForeArm  19.7546 3.21021 8.29769
RightHand  -0.527219 -0.50525 -12.5264
LeftUpLeg  -10.9098 9.32324 -2.37219
LeftLeg  10.2845 6.83819 -2.62996
LeftFoot  7.7779 -1.28657 7.34631
LeftToes  -7.64008e-011 1.13257e-010 -2.15718e-012
115
root  -50.4588 40.3821 -3.12452 177.069 -82.3298 175.553
RightUpLeg  -14.1957 -2.27421 -5.77333
RightLeg  62.2189 -3.01101 -6.74964
RightFoot  2.32053 -0.848774 7.21985
RightToes  8.73114e-010 0 -3.6325e-017
Spine  4.17534 0.729377 5.48768
Spine1  8.35494 2.11258 -4.74261
HEad  -13.2127 3.65039 -4.70755
LeftShoulder1  8.75609 -12.1609 -48.7943
LeftArm  -12.1774 18.465 -24.7121
LeftForeArm  24.0737 -30.5115 -5.32045
LeftHand  -0.244104 0.0205437 5.32207
RightShoulder  7.28191 10.4917 45.459
RightArm  3.25494 -11.886 30.7514
RightForeArm  19.1929 6.47431 8.7652
RightHand  -0.579751 -0.0571645 -12.6572
LeftUpLeg  -9.2646 7.92885 -1.52683
LeftLeg  8.80135 7.73485 -3.23059
LeftFoot  6.84013 -1.23426 7.44203
LeftToes  -7.64008e-011 1.13257e-010 -2.15718e-012
116
root  -51.2042 40.5993 -3.07314 174.2 -82.5345 179
RightUpLeg  -17.1342 -3.13289 -5.11926
RightLeg  56.7557 -3.9215 -6.83003
RightFoot  1.3359 -0.765573 6.96341
RightToes  8.73114e-010 0 -3.6325e-017
Spine  4.93732 0.201222 4.58569
Spine1  6.9688 1.08837 -3.20924
HEad  -13.1651 4.40852 -4.79393
LeftShoulder1  8.72805 -12.1012 -48.8237
LeftArm  -14.5843 18.6374 -23.8346
LeftForeArm  27.0086 -36.9785 -6.81297
LeftHand  -0.244104 0.0205437 5.32207
RightShoulder  7.05565 10.4213 44.2206
RightArm  6.79557 -15.8295 30.5324
RightForeArm  13.7879 10.2913 8.82125
RightHand  -0.600281 0.155797 -12.6167
LeftUpLeg  -7.94085 6.51617 -0.894838
LeftLeg  7.48003 8.75342 -3.89051
LeftFoot  6.31473 -1.23701 7.70358
LeftToes  -7.64008e-011 1.13257e-010 -2.15718e-012
117
root  -51.917 40.7711 -3.0679 172.465 -82.698 -178.793
RightUpLeg  -18.1733 -4.09548 -4.63971
RightLeg  48.2373 -5.47795 -6.86374
RightFoot  -0.556425 -0.614428 6.44788
RightToes  8.73114e-010 0 -3.6325e-017
Spine  5.43295 -0.207858 3.3717
Spine1  6.35593 0.208373 -1.60338
HEad  -13.6286 5.13747 -4.78763
LeftShoulder1  8.6378 -11.8989 -48.9525
LeftArm  -16.9917 18.844 -22.9708
LeftForeArm  30.0756 -44.0703 -8.77658
LeftHand  -0.244104 0.0205437 5.32207
RightShoulder  6.85572 10.3485 43.1382
RightArm  10.7559 -18.7957 30.4431
RightForeArm  7.08994 13.625 8.21796
RightHand  -0.586606 -0.00318675 -12.6845
LeftUpLeg  -6.82317 5.64561 -0.480956
LeftLeg  6.53214 9.28745 -4.43347
LeftFoot  5.99084 -1.26718 8.0606
LeftToes  -7.64008e-011 1.13257e-010 -2.15718e-012
118
root  -52.62 40.8759 -3.09806 171.005 -83.3908 -177.066
RightUpLeg  -17.3198 -5.21937 -4.39984
RightLeg  37.794 -6.09754 -5.36123
RightFoot  -2.76583 -0.468309 6.00787
RightToes  8.73114e-010 0 -3.6325e-017
Spine  5.71829 -0.67533 2.38868
Spine1  6.28454 -0.584733 -0.499252
HEad  -14.1251 5.46796 -4.55281
LeftShoulder1  8.53127 -11.6819 -49.0381
LeftArm  -18.0841 18.275 -21.9933
LeftForeArm  31.2907 -49.332 -10.6637
LeftHand  -0.244104 0.0205437 5.32207
RightShoulder  6.67095 10.1947 42.4035
RightArm  12.4908 -20.9115 30.5047
RightForeArm  3.51553 15.6861 7.46521
RightHand  -0.517803 -0.589195 -12.4988
LeftUpLeg  -5.98087 5.3543 -0.395462
LeftLeg  6.56251 9.0719 -4.59362
LeftFoot  5.01592 -1.23461 8.36213
LeftToes  -7.64008e-011 1.13257e-010 -2.15718e-012
119
root  -53.3284 40.8956 -3.17077 171.161 -84.5043 -177.275
RightUpLeg  -15.1493 -6.14107 -4.56937
RightLeg  27.4375 -4.04004 -2.54117
RightFoot  -3.30312 -0.48134 6.49311
RightToes  8.73114e-010 0 -3.6325e-017
Spine  5.64751 -1.09991 1.54119
Spine1  6.62049 -1.15696 -0.171163
HEad  -13.9648 5.27545 -4.04808
LeftShoulder1  8.32654 -11.4302 -48.6645
LeftArm  -17.8799 17.0582 -21.2939
LeftForeArm  31.2964 -51.9965 -11.8644
LeftHand  -0.244104 0.0205437 5.32207
RightShoulder  6.51166 9.96444 42.078
RightArm  11.1429 -22.5313 30.6991
RightForeArm  3.62349 16.449 6.92067
RightHand  -0.433871 -1.13408 -11.776
LeftUpLeg  -5.34961 5.34976 -0.656608
LeftLeg  7.72626 8.27068 -4.43321
LeftFoot  3.4422 -1.12606 8.50044
LeftToes  -7.64008e-011 1.13257e-010 -2.15718e-012
120
root  -54.0356 40.8707 -3.29896 176.537 -85.6393 177.055
RightUpLeg  -12.3506 -7.29159 -5.03918
RightLeg  19.0576 -0.0647614 -0.207938
RightFoot  -1.6194 -0.625006 7.214
RightToes  8.73114e-010 0 -3.6325e-017
Spine  4.96116 -1.2493 0.366275
Spine1  7.21397 -1.42592 0.0267447
HEad  -12.7347 4.57889 -3.46515
LeftShoulder1  7.99064 -11.1161 -47.6926
LeftArm  -16.7471 15.9829 -20.9894
LeftForeArm  32.9569 -52.852 -12.1515
LeftHand  -0.244104 0.0205437 5.32207
RightShoulder  6.3358 9.65929 41.8771
RightArm  7.3814 -24.1205 30.9843
RightForeArm  5.38384 16.766 6.36617
RightHand  -0.45574 -0.797703 -11.4861
LeftUpLeg  -4.63222 5.49042 -1.17615
LeftLeg  9.17524 7.08957 -4.30046
LeftFoot  1.95678 -1.00085 8.46616
LeftToes  -7.64008e-011 1.13257e-010 -2.15718e-012
121
root  -54.7228 40.887 -3.46467 -170.769 -86.4379 164.099
RightUpLeg  -9.52992 -8.59528 -5.5928
RightLeg  13.3829 2.7002 0.900243
RightFoot  1.13443 -0.625982 5.84896
RightToes  8.73114e-010 0 -3.6325e-017
Spine  3.64281 -1.17624 -1.12257
Spine1  7.94097 -1.55149 0.696534
HEad  -10.679 3.74154 -3.06385
LeftShoulder1  7.46276 -10.6131 -46.0868
LeftArm  -14.7971 15.5104 -20.6327
LeftForeArm  37.0762 -52.4847 -11.6392
LeftHand  -0.244104 0.0205437 5.32207
RightShoulder  6.03676 9.19557 41.3157
RightArm  2.73464 -25.5615 31.1792
RightForeArm  6.82518 17.5121 5.63332
RightHand  -0.628135 0.446926 -12.5302
LeftUpLeg  -3.38778 5.52897 -1.8072
LeftLeg  9.45035 6.09191 -4.3987
LeftFoot  0.974054 -0.902125 8.29098
LeftToes  -7.64008e-011 1.13257e-010 -2.15718e-012
122
root  -55.3818 40.9867 -3.61781 -159.148 -86.5254 152.398
RightUpLeg  -7.10528 -8.34317 -6.03701
RightLeg  10.0996 2.22559 1.2936
RightFoot  3.09645 -0.276466 2.32691
RightToes  8.73114e-010 0 -3.6325e-017
Spine  2.07087 -1.10755 -1.95377
Spine1  8.53966 -1.57661 1.24199
HEad  -8.30469 3.3937 -2.98243
LeftShoulder1  6.71305 -9.84015 -43.758
LeftArm  -12.2716 15.7898 -19.726
LeftForeArm  40.2728 -50.6146 -10.5525
LeftHand  -0.244104 0.0205437 5.32207
RightShoulder  5.56327 8.5363 40.0589
RightArm  -1.51242 -26.1984 30.7496
RightForeArm  7.63294 18.5454 4.99274
RightHand  -0.853837 1.70821 -14.1016
LeftUpLeg  -1.51321 5.1456 -2.2417
LeftLeg  8.07246 6.07807 -4.57956
LeftFoot  0.452811 -0.827996 7.97641
LeftToes  -7.64008e-011 1.13257e-010 -2.15718e-012
123
root  -56.0068 41.1288 -3.71837 -161.345 -85.8912 154.604
RightUpLeg  -5.28646 -7.4796 -5.89865
RightLeg  8.38605 1.46517 1.30066
RightFoot  3.50084 0.0629396 -0.313019
RightToes  8.73114e-010 0 -3.6325e-017
Spine  0.582809 -1.09657 -1.25926
Spine1  9.02573 -1.39473 0.79478
HEad  -6.08622 3.89088 -3.27103
LeftShoulder1  5.87016 -8.89074 -41.0148
LeftArm  -9.99947 16.7089 -18.0433
LeftForeArm  39.1929 -46.8883 -9.15623
LeftHand  -0.244104 0.0205437 5.32207
RightShoulder  4.99316 7.79117 38.1528
RightArm  -4.8848 -25.3118 28.9661
RightForeArm  8.2143 19.0197 4.67477
RightHand  -0.987934 2.3774 -14.9157
LeftUpLeg  0.516257 4.51905 -2.18387
LeftLeg  6.14253 7.1444 -4.64251
LeftFoot  0.127913 -0.762112 7.56944
LeftToes  -7.64008e-011 1.13257e-010 -2.15718e-012
124
root  -56.5852 41.2414 -3.77821 -171.392 -84.8121 164.644
RightUpLeg  -3.92587 -7.10604 -5.53053
RightLeg  7.36702 2.24543 1.56317
RightFoot  3.11344 0.0612083 -0.310789
RightToes  8.73114e-010 0 -3.6325e-017
Spine  -0.755477 -1.04031 0.439045
Spine1  9.6372 -1.09782 -0.231718
HEad  -4.25533 4.89043 -3.88092
LeftShoulder1  5.14959 -7.99367 -38.5927
LeftArm  -8.77937 17.7928 -15.455
LeftForeArm  35.2724 -41.6625 -7.65424
LeftHand  -0.244104 0.0205437 5.32207
RightShoulder  4.42637 7.09846 35.7692
RightArm  -7.53026 -22.884 25.5585
RightForeArm  8.26331 18.6565 4.57931
RightHand  -1.04561 2.74309 -15.077
LeftUpLeg  2.04825 4.24352 -1.69791
LeftLeg  5.14929 8.4225 -4.46087
LeftFoot  -0.42523 -0.679672 7.12886
LeftToes  -7.64008e-011 1.13257e-010 -2.15718e-012
